{
    "asset": {
        "copyright": "2024 (c) Adobe Inc.",
        "generator": "Adobe Substance 3D Stager - 2b7de00a31d7c254384951b3947843d0e76cdcb1",
        "version": "2.0"
    },
    "accessors": [
        {
            "bufferView": 0,
            "componentType": 5126,
            "count": 17069,
            "type": "VEC3",
            "max": [
                0.004030630923807621,
                0.02000308968126774,
                0.0040505374781787399
            ],
            "min": [
                -0.004030630923807621,
                0.0000030909329780115515,
                -0.0040505388751626019
            ]
        },
        {
            "bufferView": 1,
            "componentType": 5126,
            "count": 17069,
            "type": "VEC3"
        },
        {
            "bufferView": 2,
            "componentType": 5126,
            "count": 17069,
            "type": "VEC4"
        },
        {
            "bufferView": 3,
            "componentType": 5126,
            "count": 17069,
            "type": "VEC2"
        },
        {
            "bufferView": 4,
            "componentType": 5125,
            "count": 94494,
            "type": "SCALAR",
            "max": [
                17068.0
            ],
            "min": [
                0.0
            ]
        }
    ],
    "bufferViews": [
        {
            "buffer": 0,
            "byteOffset": 0,
            "byteLength": 204828,
            "target": 34962
        },
        {
            "buffer": 0,
            "byteOffset": 204828,
            "byteLength": 204828,
            "target": 34962
        },
        {
            "buffer": 0,
            "byteOffset": 409656,
            "byteLength": 273104,
            "target": 34962
        },
        {
            "buffer": 0,
            "byteOffset": 682760,
            "byteLength": 136552,
            "target": 34962
        },
        {
            "buffer": 0,
            "byteOffset": 819312,
            "byteLength": 377976,
            "target": 34963
        }
    ],
    "buffers": [
        {
            "byteLength": 1197288,
            "uri": "nimbusabja_binary.bin"
        }
    ],
    "images": [
        {
            "name": "model_n3d_water_material3_stack-3A-3Abase_color-3A-3Asampler",
            "uri": "nimbusabja_images/model_n3d_water_material3_stack-3A-3Abase_color-3A-3Asampler.jpg",
            "mimeType": "image/jpeg"
        },
        {
            "name": "composited_roughness_composited_metallic",
            "uri": "nimbusabja_images/composited_roughness_composited_metallic.png",
            "mimeType": "image/png"
        },
        {
            "name": "composited_translucency",
            "uri": "nimbusabja_images/composited_translucency.png",
            "mimeType": "image/png"
        }
    ],
    "materials": [
        {
            "pbrMetallicRoughness": {
                "baseColorTexture": {
                    "index": 0
                },
                "metallicRoughnessTexture": {
                    "index": 1
                }
            },
            "name": "water_material3",
            "extensions": {
                "KHR_materials_transmission": {
                    "transmissionFactor": 1,
                    "transmissionTexture": {
                        "index": 2
                    }
                },
                "KHR_materials_volume": {
                    "thicknessFactor": 0
                },
                "KHR_materials_ior": {
                    "ior": 1.3300000429153443
                },
                "KHR_materials_specular": {
                    "extensions": {
                        "EXT_materials_specular_edge_color": {
                            "specularEdgeColorEnabled": true
                        }
                    },
                    "specularColorFactor": [
                        2,
                        2,
                        2
                    ],
                    "specularFactor": 0.5400000214576721
                }
            }
        }
    ],
    "meshes": [
        {
            "name": "model_n3d",
            "primitives": [
                {
                    "attributes": {
                        "POSITION": 0,
                        "NORMAL": 1,
                        "TANGENT": 2,
                        "TEXCOORD_0": 3
                    },
                    "indices": 4,
                    "material": 0
                }
            ]
        }
    ],
    "nodes": [
        {
            "name": "working_cam_n3d"
        },
        {
            "translation": [
                -0.017668234184384347,
                0.002936435164883733,
                0.0038424162194132807
            ],
            "rotation": [
                0.0249754898250103,
                -0.29806646704673769,
                -0.02257564477622509,
                0.9539512395858765
            ],
            "scale": [
                6.069626808166504,
                6.069619655609131,
                6.069632530212402
            ],
            "mesh": 0,
            "name": "model_n3d"
        }
    ],
    "samplers": [
        {}
    ],
    "scenes": [
        {
            "nodes": [
                1
            ],
            "name": "scene"
        }
    ],
    "textures": [
        {
            "name": "model_n3d_water_material3_stack::base_color::sampler",
            "sampler": 0,
            "source": 0
        },
        {
            "name": "composited_roughness_composited_metallic",
            "sampler": 0,
            "source": 1
        },
        {
            "name": "composited_translucency",
            "sampler": 0,
            "source": 2
        }
    ],
    "scene": 0,
    "extensionsUsed": [
        "KHR_materials_transmission",
        "KHR_materials_volume",
        "KHR_materials_ior",
        "KHR_materials_specular",
        "EXT_materials_specular_edge_color"
    ]
}